HIERARCHY
ROOT root
{
	OFFSET	0	13.1	24.9
	CHANNELS 6  Xposition Yposition Zposition Xrotation Yrotation Zrotation
	JOINT spine_1
	{
		OFFSET	0	9.99999	0
		CHANNELS 3  Xrotation Yrotation Zrotation
		JOINT spine_2
		{
			OFFSET	0	112	-10
			CHANNELS 3  Xrotation Yrotation Zrotation
			JOINT spine_3
			{
				OFFSET	0	206.5	19.3
				CHANNELS 3  Xrotation Yrotation Zrotation
				JOINT spine_4
				{
					OFFSET	0	110.4	14.6
					CHANNELS 3  Xrotation Yrotation Zrotation
					JOINT neck_1
					{
						OFFSET	0	71.8	-50.3
						CHANNELS 3  Xrotation Yrotation Zrotation
						JOINT neck_2
						{
							OFFSET	0	86.2	-25.8
							CHANNELS 3  Xrotation Yrotation Zrotation
							JOINT head_ee
							{
								OFFSET	0	179.8	-8.7
								CHANNELS 3  Xrotation Yrotation Zrotation
								End Site
								{
									OFFSET	1	0	0
								}
							}
						}
					}
					JOINT left_clavicle
					{
						OFFSET	-43.2	22.4	-70.8
						CHANNELS 3  Xrotation Yrotation Zrotation
						JOINT left_shoulder
						{
							OFFSET	-93.9	-5.79999	48.7
							CHANNELS 3  Xrotation Yrotation Zrotation
							JOINT left_elbow
							{
								OFFSET	-291.4	-30.8	15.2
								CHANNELS 3  Xrotation Yrotation Zrotation
								JOINT left_lowarm_twist
								{
									OFFSET	-110.7	-3.89999	13.6
									CHANNELS 3  Xrotation Yrotation Zrotation
									JOINT left_hand
									{
										OFFSET	-110.7	-3.89999	13.6
										CHANNELS 3  Xrotation Yrotation Zrotation
										JOINT left_ee
										{
											OFFSET	-80.8	-5.10001	12.1
											CHANNELS 3  Xrotation Yrotation Zrotation
											End Site
											{
												OFFSET	1	0	0
											}
										}
									}
								}
							}
						}
					}
					JOINT right_clavicle
					{
						OFFSET	43.2	22.4	-70.8
						CHANNELS 3  Xrotation Yrotation Zrotation
						JOINT right_shoulder
						{
							OFFSET	93.9	-5.79999	48.7
							CHANNELS 3  Xrotation Yrotation Zrotation
							JOINT right_elbow
							{
								OFFSET	291.4	-30.8	15.2
								CHANNELS 3  Xrotation Yrotation Zrotation
								JOINT right_lowarm_twist
								{
									OFFSET	110.7	-3.89999	13.6
									CHANNELS 3  Xrotation Yrotation Zrotation
									JOINT right_hand
									{
										OFFSET	110.7	-3.89999	13.6
										CHANNELS 3  Xrotation Yrotation Zrotation
										JOINT right_ee
										{
											OFFSET	80.8	-5.10001	12.1
											CHANNELS 3  Xrotation Yrotation Zrotation
											End Site
											{
												OFFSET	1	0	0
											}
										}
									}
								}
							}
						}
					}
				}
			}
		}
	}
	JOINT left_hip
	{
		OFFSET	-82.8	-127.5	0.300001
		CHANNELS 3  Xrotation Yrotation Zrotation
		JOINT left_knee
		{
			OFFSET	-28.2	-396.7	2.2
			CHANNELS 3  Xrotation Yrotation Zrotation
			JOINT left_ankle
			{
				OFFSET	-11.7	-411.3	35.4
				CHANNELS 3  Xrotation Yrotation Zrotation
				JOINT left_toes
				{
					OFFSET	0	-60	-88.6
					CHANNELS 3  Xrotation Yrotation Zrotation
					JOINT left_foot_ee
					{
						OFFSET	-22.5	-16.5	-42.2
						CHANNELS 3  Xrotation Yrotation Zrotation
						End Site
						{
							OFFSET	1	0	0
						}
					}
				}
			}
		}
	}
	JOINT right_hip
	{
		OFFSET	82.8	-127.5	0.300001
		CHANNELS 3  Xrotation Yrotation Zrotation
		JOINT right_knee
		{
			OFFSET	28.2	-396.7	2.2
			CHANNELS 3  Xrotation Yrotation Zrotation
			JOINT right_ankle
			{
				OFFSET	11.7	-411.3	35.4
				CHANNELS 3  Xrotation Yrotation Zrotation
				JOINT right_toes
				{
					OFFSET	0	-60	-88.6
					CHANNELS 3  Xrotation Yrotation Zrotation
					JOINT right_foot_ee
					{
						OFFSET	22.5	-16.5	-42.2
						CHANNELS 3  Xrotation Yrotation Zrotation
						End Site
						{
							OFFSET	1	0	0
						}
					}
				}
			}
		}
	}
}
MOTION
Frames: 14
Frame Time: 0.02
2800.94 716.97 -1473.77 -6.88798931716 61.4926979649 13.8503575143 1.75887 -0.681212 -5.24912 1.77412 -0.346293 -5.28171 1.80646 0.607286 -5.25816 1.76798 -0.229564 -5.28805 -16.6317 12.4087 10.6679 -16.6272 17.818 14.4211 -0.0 0.0 -0.0 10.6011 2.17433 20.76 -7.85154 -17.4345 63.7875 4.98813 -67.9422 3.36204 -83.6053 -8.27715 5.21671 0.100949 9.99516 4.78923 -0.0 0.0 -0.0 -0.884453 -5.21667 0.998064 -17.6378 16.0061 -66.0233 0.518378 14.402 -0.0654959 68.3534 2.57132 7.82204 -3.99178 -27.5639 11.1042 0.0 0.0 0.0 -1.87124 32.6371 -8.01453 -12.3019 0.307928 1.85919 37.9794 -24.8296 -5.39774 -19.1523 0.0 0.0 -0.0 0.0 -0.0 34.4302 2.30821 -9.29344 -2.62544 -0.0991607 -0.390682 -6.88825 21.5648 -1.18272 -21.6068 0.0 0.0 0.0 0.0 0.0 
2738.56970473 724.838 -1504.6659695 -10.8610105212 65.5499830699 15.396758084 2.03761 -0.495545 -4.62303 2.04947 -0.200689 -4.64514 2.06507 0.615526 -4.60862 2.03546 -0.11923 -4.64793 -12.1694 14.8214 12.1862 -11.9757 20.3696 15.8142 -0.0 0.0 -0.0 9.68658 4.28546 18.7668 -13.4857 -17.6269 66.4905 3.96891 -63.023 2.43386 -81.7981 -8.04948 5.25192 -0.093578 10.2837 3.65767 -0.0 0.0 -0.0 1.32178 -1.81644 -2.71919 -15.6009 16.9095 -65.0132 0.364045 10.2229 -0.0325635 68.8285 2.61973 7.85911 -4.36555 -28.8422 12.3494 0.0 0.0 0.0 -2.94667 35.8562 -8.04173 -13.7962 0.31795 2.08823 35.8468 -26.2762 -5.26091 -17.1895 0.0 0.0 -0.0 0.0 -0.0 31.4045 1.01615 -6.62529 -1.72821 -0.0672908 -0.256674 -10.528 24.3223 -1.87343 -18.1421 0.0 0.0 0.0 0.0 0.0 
2739.21153599 724.838 -1505.92915726 -10.4000533953 64.4036160071 14.888078127 2.03761 -0.495545 -4.62303 2.04947 -0.200689 -4.64514 2.06507 0.615526 -4.60862 2.03546 -0.11923 -4.64793 -12.1694 14.8214 12.1862 -11.9757 20.3696 15.8142 -0.0 0.0 -0.0 9.68658 4.28546 18.7668 -13.4857 -17.6269 66.4905 3.96891 -63.023 2.43386 -81.7981 -8.04948 5.25192 -0.093578 10.2837 3.65767 -0.0 0.0 -0.0 1.32178 -1.81644 -2.71919 -15.6009 16.9095 -65.0132 0.364045 10.2229 -0.0325635 68.8285 2.61973 7.85911 -4.36555 -28.8422 12.3494 0.0 0.0 0.0 -2.94667 35.8562 -8.04173 -13.7962 0.31795 2.08823 35.8468 -26.2762 -5.26091 -17.1895 0.0 0.0 -0.0 0.0 -0.0 31.4045 1.01615 -6.62529 -1.72821 -0.0672908 -0.256674 -10.528 24.3223 -1.87343 -18.1421 0.0 0.0 0.0 0.0 0.0 
2723.34052658 727.928 -1514.15634187 -9.67627628263 65.301492276 14.184427688 2.22964 -0.400247 -4.51775 2.24098 -0.112261 -4.53402 2.24856 0.668948 -4.4859 2.22049 -0.0471549 -4.53516 -13.1382 14.8586 13.3532 -12.8856 19.9891 17.0787 -0.0 0.0 -0.0 9.70279 7.08445 18.5806 -14.7009 -16.6211 66.7608 3.62936 -60.9011 2.1341 -82.1018 -8.08782 5.24651 -0.362188 10.5665 2.05627 -0.0 0.0 -0.0 1.50295 -1.45189 -3.02893 -15.8015 16.2686 -65.3599 0.354985 9.97364 -0.0309749 68.9458 2.63171 7.86819 -4.53948 -28.8953 13.2786 0.0 0.0 0.0 -3.9264 36.743 -8.18918 -13.017 0.313469 1.96877 34.9321 -26.5911 -5.18127 -17.1285 0.0 0.0 -0.0 0.0 -0.0 31.3883 0.727599 -6.00173 -5.39423 -0.184211 -0.807055 -7.96692 26.405 -1.44696 -17.9506 0.0 0.0 0.0 0.0 0.0 
2693.93860047 734.83 -1529.69825018 -12.5340974956 67.6166349304 16.3706216729 2.31191 -0.30583 -4.33138 2.32235 -0.0298579 -4.34204 2.32311 0.711648 -4.28354 2.29752 0.0268758 -4.34206 -10.2959 16.7881 12.0532 -10.0915 23.642 15.8842 -0.0 0.0 -0.0 8.9508 8.6063 17.029 -18.5054 -18.1139 66.3385 3.16592 -57.4646 1.73592 -80.4453 -7.87831 5.27352 -0.127511 10.2676 3.43367 -0.0 0.0 -0.0 2.19859 0.215991 -4.21798 -12.8585 16.9296 -66.0858 0.363483 10.2074 -0.0324638 69.648 2.70392 7.92208 -4.55239 -28.8129 13.4071 0.0 0.0 0.0 -2.9886 37.65 -8.43603 -13.7852 0.317897 2.08655 30.4467 -22.2699 -4.46849 -17.0729 0.0 0.0 -0.0 0.0 -0.0 29.7718 0.193736 -5.70621 -5.63431 -0.190634 -0.84334 -3.5239 27.1381 -0.639836 -15.9541 0.0 0.0 0.0 0.0 0.0 
2694.86305093 734.83 -1531.43237547 -12.0624390757 66.7054511342 15.8588559228 2.31191 -0.30583 -4.33138 2.32235 -0.0298579 -4.34204 2.32311 0.711648 -4.28354 2.29752 0.0268758 -4.34206 -10.2959 16.7881 12.0532 -10.0915 23.642 15.8842 -0.0 0.0 -0.0 8.9508 8.6063 17.029 -18.5054 -18.1139 66.3385 3.16592 -57.4646 1.73592 -80.4453 -7.87831 5.27352 -0.127511 10.2676 3.43367 -0.0 0.0 -0.0 2.19859 0.215991 -4.21798 -12.8585 16.9296 -66.0858 0.363483 10.2074 -0.0324638 69.648 2.70392 7.92208 -4.55239 -28.8129 13.4071 0.0 0.0 0.0 -2.9886 37.65 -8.43603 -13.7852 0.317897 2.08655 30.4467 -22.2699 -4.46849 -17.0729 0.0 0.0 -0.0 0.0 -0.0 29.7718 0.193736 -5.70621 -5.63431 -0.190634 -0.84334 -3.5239 27.1381 -0.639836 -15.9541 0.0 0.0 0.0 0.0 0.0 
2695.19075709 734.83 -1532.03119027 -11.9073863193 66.3885721256 15.6898409319 2.31191 -0.30583 -4.33138 2.32235 -0.0298579 -4.34204 2.32311 0.711648 -4.28354 2.29752 0.0268758 -4.34206 -10.2959 16.7881 12.0532 -10.0915 23.642 15.8842 -0.0 0.0 -0.0 8.9508 8.6063 17.029 -18.5054 -18.1139 66.3385 3.16592 -57.4646 1.73592 -80.4453 -7.87831 5.27352 -0.127511 10.2676 3.43367 -0.0 0.0 -0.0 2.19859 0.215991 -4.21798 -12.8585 16.9296 -66.0858 0.363483 10.2074 -0.0324638 69.648 2.70392 7.92208 -4.55239 -28.8129 13.4071 0.0 0.0 0.0 -2.9886 37.65 -8.43603 -13.7852 0.317897 2.08655 30.4467 -22.2699 -4.46849 -17.0729 0.0 0.0 -0.0 0.0 -0.0 29.7718 0.193736 -5.70621 -5.63431 -0.190634 -0.84334 -3.5239 27.1381 -0.639836 -15.9541 0.0 0.0 0.0 0.0 0.0 
2695.62966655 734.83 -1532.82084536 -11.7086694415 65.9689147507 15.4726203832 2.31191 -0.30583 -4.33138 2.32235 -0.0298579 -4.34204 2.32311 0.711648 -4.28354 2.29752 0.0268758 -4.34206 -10.2959 16.7881 12.0532 -10.0915 23.642 15.8842 -0.0 0.0 -0.0 8.9508 8.6063 17.029 -18.5054 -18.1139 66.3385 3.16592 -57.4646 1.73592 -80.4453 -7.87831 5.27352 -0.127511 10.2676 3.43367 -0.0 0.0 -0.0 2.19859 0.215991 -4.21798 -12.8585 16.9296 -66.0858 0.363483 10.2074 -0.0324638 69.648 2.70392 7.92208 -4.55239 -28.8129 13.4071 0.0 0.0 0.0 -2.9886 37.65 -8.43603 -13.7852 0.317897 2.08655 30.4467 -22.2699 -4.46849 -17.0729 0.0 0.0 -0.0 0.0 -0.0 29.7718 0.193736 -5.70621 -5.63431 -0.190634 -0.84334 -3.5239 27.1381 -0.639836 -15.9541 0.0 0.0 0.0 0.0 0.0 
2672.68307839 737.908 -1536.69519231 -10.4381311439 67.543302879 14.2904606956 2.19406 -0.373644 -4.34648 2.20457 -0.0965781 -4.36141 2.2108 0.657511 -4.31274 2.18485 -0.0311842 -4.36237 -10.7867 16.677 11.1589 -10.6802 24.1824 15.1135 -0.0 0.0 -0.0 8.68862 12.0013 16.2622 -20.4582 -17.3829 66.7166 2.88476 -55.0059 1.50213 -78.6811 -7.65428 5.29556 -0.16203 9.82173 3.02943 -0.0 0.0 -0.0 1.74381 0.846945 -3.28382 -11.6541 18.8688 -66.8133 0.386086 10.8276 -0.0365899 69.7833 2.71792 7.93237 -4.43053 -28.8768 12.6862 0.0 0.0 0.0 -2.32918 37.5331 -9.93622 -18.66 0.309178 2.8342 27.1306 -18.8939 -3.95168 -17.3575 0.0 0.0 -0.0 0.0 -0.0 28.0982 -0.595914 -5.51388 -6.63943 -0.215876 -0.995521 -1.84305 28.3865 -0.338588 -15.7089 0.0 0.0 0.0 0.0 0.0 
2652.34829503 738.4 -1540.87102618 -10.5828491982 69.1431905982 14.0633834934 2.06651 -0.412389 -4.21762 2.07639 -0.143421 -4.23527 2.08633 0.59854 -4.19529 2.06178 -0.0709222 -4.2371 -10.4732 16.7523 11.0658 -10.357 24.2949 14.9821 -0.0 0.0 -0.0 8.17677 13.2815 15.2491 -21.8566 -15.7943 66.9387 2.62722 -52.4533 1.29444 -78.2269 -7.59649 5.3001 -0.212395 10.2057 2.86459 -0.0 0.0 -0.0 2.01569 1.6737 -3.74103 -11.342 20.0278 -66.2638 0.458449 12.7952 -0.0514041 69.9368 2.73381 7.94399 -4.4352 -28.9112 12.6888 0.0 0.0 0.0 -1.30703 35.9044 -10.8646 -22.6716 0.254348 3.44719 26.092 -18.7855 -3.82182 -16.9879 0.0 0.0 -0.0 0.0 -0.0 25.9965 -0.451561 -5.10173 -6.93154 -0.22271 -1.03983 2.52908 27.1933 0.451696 -13.6761 0.0 0.0 0.0 0.0 0.0 
2634.42399623 737.752 -1545.64556044 -11.6883735865 70.2752716436 15.4104373928 2.14997 -0.384889 -4.28788 2.16019 -0.111518 -4.30364 2.16761 0.635967 -4.25794 2.14232 -0.0438292 -4.30486 -10.3893 16.9094 10.592 -10.3096 24.8885 14.5616 -0.0 0.0 -0.0 7.96681 14.4954 14.7851 -22.9999 -15.7386 66.5369 2.32393 -49.0136 1.05952 -76.6283 -7.39276 5.31242 -0.0051346 9.90408 4.07067 -0.0 0.0 -0.0 2.14929 3.2841 -3.86611 -8.70193 20.5352 -66.5258 0.471519 13.1474 -0.0543377 69.9492 2.7351 7.94493 -4.4988 -28.9165 13.038 0.0 0.0 0.0 -0.0944039 34.7623 -12.8832 -25.0588 0.201399 3.80967 23.8763 -18.6794 -3.54133 -16.4019 0.0 0.0 -0.0 0.0 -0.0 24.7355 -0.237269 -5.30391 -7.73632 -0.240369 -1.16206 6.03807 28.6052 1.08448 -13.8844 0.0 0.0 0.0 0.0 0.0 
2619.47381962 733.172 -1552.10142835 -8.9774363723 69.4736026246 12.4382270296 2.07882 -0.390612 -4.03082 2.08785 -0.133544 -4.04747 2.09664 0.574671 -4.00876 2.07423 -0.0651109 -4.04915 -11.9998 16.2682 12.7966 -11.8088 22.6942 16.7686 -0.0 0.0 -0.0 6.79869 15.693 12.7431 -24.4417 -15.9654 66.6219 2.11248 -46.2949 0.9032 -74.8855 -7.17024 5.31932 0.0963502 8.42468 4.12539 -0.0 0.0 -0.0 1.6269 4.64247 -2.70373 -3.88856 22.4748 -69.1387 0.636118 17.4905 -0.0978548 69.7006 2.70937 7.92609 -4.45215 -28.7018 12.9248 0.0 0.0 0.0 0.638938 31.9943 -13.9312 -32.8301 -0.074697 4.96945 20.2879 -13.7246 -2.95883 -15.1361 0.0 0.0 -0.0 0.0 -0.0 23.0016 -0.518761 -6.0111 -8.30006 -0.251715 -1.24783 10.4674 28.2317 1.83741 -13.184 0.0 0.0 0.0 0.0 0.0 
2614.33467442 734.877 -1559.89476585 -8.60366694712 70.0330448075 11.9308451167 2.01938 -0.471641 -3.8979 2.0278 -0.222846 -3.91997 2.04267 0.467906 -3.89835 2.0215 -0.153147 -3.9233 -12.568 16.2273 12.356 -12.4492 23.0754 16.4644 -0.0 0.0 -0.0 6.43547 15.9766 12.1321 -24.0832 -16.4595 66.1807 1.77143 -41.2637 0.667008 -71.1002 -6.68651 5.31078 0.448329 7.37376 5.99336 -0.0 0.0 -0.0 1.2665 5.82529 -1.86413 -1.80998 24.0069 -70.7888 0.718038 19.5802 -0.123901 69.9056 2.73058 7.94163 -4.31547 -28.6955 12.17 0.0 0.0 0.0 1.90978 29.421 -15.0265 -34.9088 -0.175033 5.27257 14.6953 -9.89785 -2.15145 -15.2183 0.0 0.0 -0.0 0.0 -0.0 21.6563 -0.563896 -6.49142 -7.44777 -0.234235 -1.11821 13.0576 27.0852 2.23325 -11.0593 0.0 0.0 0.0 0.0 0.0 
2596.89925408 740.636 -1569.20042551 -6.46526508344 69.2808894812 9.60354530884 1.99334 -0.267608 -3.39958 1.99977 -0.0508703 -3.4097 2.00244 0.550246 -3.36544 1.98664 0.0121527 -3.41006 -12.6736 16.0106 12.9268 -12.4964 22.3277 16.9466 -0.0 0.0 -0.0 4.71324 19.3551 9.30554 -25.1672 -20.0479 65.2174 1.63213 -38.9528 0.577246 -68.5324 -6.35888 5.28667 0.569253 5.71572 6.12598 -0.0 0.0 -0.0 1.2841 4.21636 -2.06045 0.000300143 25.9887 -72.3771 0.846058 22.739 -0.170129 67.8941 2.52483 7.78584 -3.42417 -25.4448 9.19758 0.0 0.0 0.0 5.65084 24.1924 -16.8332 -45.0179 -0.816461 6.68598 7.85572 -3.06309 -1.146 -14.5313 0.0 0.0 -0.0 0.0 -0.0 18.5856 -0.586511 -7.11173 -5.68348 -0.191931 -0.850774 11.1115 29.5657 1.97889 -9.31859 0.0 0.0 0.0 0.0 0.0 
